<svg width="427" height="412" viewBox="0 0 427 412" fill="none" xmlns="http://www.w3.org/2000/svg">
<path d="M385 199C385 105.146 308.854 28.9999 215 28.9999C121.146 28.9999 45 105.146 45 199C45 292.854 121.146 369 215 369C308.854 369 385 292.854 385 199Z" stroke="white" stroke-width="20" stroke-miterlimit="10"/>
<g clip-path="url(#clip0)">
<path d="M179.637 52.2307L179.637 107.708C179.637 111.977 180.477 116.204 182.111 120.147C183.744 124.091 186.138 127.674 189.157 130.693L194.492 136.029C195.248 136.783 195.846 137.68 196.255 138.666C196.663 139.652 196.873 140.71 196.873 141.777L196.255 192.427" stroke="white" stroke-width="20" stroke-linecap="round" stroke-linejoin="round"/>
<path d="M232.147 161.872L232.147 141.777C232.147 140.71 232.357 139.652 232.765 138.666C233.174 137.68 233.773 136.783 234.528 136.029L239.864 130.693C242.882 127.674 245.276 124.091 246.91 120.147C248.543 116.203 249.383 111.977 249.383 107.708L249.383 52.2307" stroke="white" stroke-width="20" stroke-linecap="round" stroke-linejoin="round"/>
<path d="M214.848 52.7072L214.848 110.16" stroke="white" stroke-width="20" stroke-linecap="round" stroke-linejoin="round"/>
<path d="M235.84 266.781L235.348 323.01C235.347 328.396 233.207 333.561 229.399 337.37C225.59 341.178 220.425 343.318 215.038 343.319C209.652 343.318 204.487 341.178 200.678 337.37C196.87 333.561 195.597 316.954 195.596 311.568" stroke="white" stroke-width="20" stroke-linecap="round" stroke-linejoin="round"/>
</g>
<rect x="31" y="184.848" width="260" height="260" transform="rotate(-45 31 184.848)" stroke="white"/>
<path d="M31.9769 90.768L92.7899 29.6695C92.7899 29.6695 69.0769 19.718 53.7698 22.6035C38.4626 25.489 27.5314 36.6682 24.7474 50.9399C21.9635 65.2116 31.9769 90.768 31.9769 90.768Z" stroke="white" stroke-width="20"/>
<path d="M395.028 90.768L334.215 29.6695C334.215 29.6695 357.927 19.7179 373.235 22.6034C388.542 25.4889 399.473 36.6681 402.257 50.9398C405.041 65.2116 395.028 90.768 395.028 90.768Z" stroke="white" stroke-width="20"/>
<path d="M117.522 292.309L271.432 162.789C274.352 160.331 278.157 159.111 282.008 159.396C285.86 159.681 289.443 161.449 291.969 164.31C294.494 167.172 295.756 170.892 295.478 174.653C295.199 178.414 293.403 181.907 290.483 184.366L252.282 215.96C249.786 218.028 246.555 219.052 243.285 218.812L241.5 218.812C239.849 218.69 238.569 218.991 237 219.5C235.431 220.009 233.745 221.939 232.5 223L228.5 226.5C226.971 227.896 224.808 228.873 224.155 230.816C223.501 232.76 223.36 234.834 223.743 236.849C224.344 240.026 224.086 243.298 222.992 246.341C221.899 249.384 220.009 252.092 217.51 254.196L181.818 284.229C160.647 302.045 130.308 306.931 117.522 292.309Z" stroke="white" stroke-width="20" stroke-linejoin="round"/>
<mask id="mask0" mask-type="alpha" maskUnits="userSpaceOnUse" x="291" y="299" width="106" height="112">
<rect x="382.28" y="371.355" width="41.6334" height="73" rx="20.8167" transform="rotate(142.847 382.28 371.355)" stroke="black" stroke-width="20"/>
</mask>
<g mask="url(#mask0)">
<rect x="485.073" y="336.291" width="247.845" height="76.519" transform="rotate(142.847 485.073 336.291)" fill="white"/>
</g>
<mask id="mask1" mask-type="alpha" maskUnits="userSpaceOnUse" x="40" y="300" width="106" height="112">
<rect x="14.0097" y="-1.93091" width="41.6334" height="73" rx="20.8167" transform="matrix(0.79703 0.603939 0.603939 -0.79703 44.0097 362.193)" stroke="black" stroke-width="20"/>
</mask>
<g mask="url(#mask1)">
<rect width="247.845" height="76.519" transform="matrix(0.79703 0.603939 0.603939 -0.79703 -48.7832 337.128)" fill="white"/>
</g>
<defs>
<clipPath id="clip0">
</clipPath>
</defs>
</svg>
